<svg width="26" height="26" viewBox="0 0 26 26" fill="none" xmlns="http://www.w3.org/2000/svg">
<path fill-rule="evenodd" clip-rule="evenodd" d="M6.75 0.5C7.44035 0.5 8 1.05965 8 1.75V3H18V1.75C18 1.05965 18.5596 0.5 19.25 0.5C19.9404 0.5 20.5 1.05965 20.5 1.75V3H21.75C23.8211 3 25.5 4.67894 25.5 6.75V15.5C25.5 16.1904 24.9404 16.75 24.25 16.75C23.5596 16.75 23 16.1904 23 15.5V10.5H3V21.75C3 22.4404 3.55965 23 4.25 23H10.5C11.1904 23 11.75 23.5596 11.75 24.25C11.75 24.9404 11.1904 25.5 10.5 25.5H4.25C2.17894 25.5 0.5 23.8211 0.5 21.75V6.75C0.5 4.67894 2.17894 3 4.25 3H5.5V1.75C5.5 1.05965 6.05965 0.5 6.75 0.5ZM4.25 5.5C3.55965 5.5 3 6.05965 3 6.75V8H23V6.75C23 6.05965 22.4404 5.5 21.75 5.5H4.25Z" fill="white"/>
<path d="M18.8838 20.1339C19.372 19.6458 19.372 18.8543 18.8838 18.3662C18.3957 17.878 17.6042 17.878 17.1161 18.3662L14.6161 20.8662C14.128 21.3543 14.128 22.1458 14.6161 22.6339L17.1161 25.1339C17.6042 25.622 18.3957 25.622 18.8838 25.1339C19.372 24.6458 19.372 23.8543 18.8838 23.3662L17.2677 21.75L18.8838 20.1339Z" fill="white"/>
<path d="M25.1338 18.3662C25.622 18.8543 25.622 19.6458 25.1338 20.1339L23.5177 21.75L25.1338 23.3662C25.622 23.8543 25.622 24.6458 25.1338 25.1339C24.6457 25.622 23.8542 25.622 23.3661 25.1339L20.8661 22.6339C20.378 22.1458 20.378 21.3543 20.8661 20.8662L23.3661 18.3662C23.8542 17.878 24.6457 17.878 25.1338 18.3662Z" fill="white"/>
</svg>
