<svg width="19" height="18" viewBox="0 0 19 18" fill="none" xmlns="http://www.w3.org/2000/svg">
<path d="M5.75 7.25025C5.75 6.71975 5.96074 6.21098 6.33586 5.83586C6.71098 5.46074 7.21975 5.25 7.75025 5.25H14.2498C14.5124 5.25 14.7725 5.30174 15.0152 5.40226C15.2579 5.50278 15.4784 5.65012 15.6641 5.83586C15.8499 6.0216 15.9972 6.24211 16.0977 6.48479C16.1983 6.72747 16.25 6.98757 16.25 7.25025V13.7498C16.25 14.0124 16.1983 14.2725 16.0977 14.5152C15.9972 14.7579 15.8499 14.9784 15.6641 15.1641C15.4784 15.3499 15.2579 15.4972 15.0152 15.5977C14.7725 15.6983 14.5124 15.75 14.2498 15.75H7.75025C7.48757 15.75 7.22747 15.6983 6.98479 15.5977C6.74211 15.4972 6.5216 15.3499 6.33586 15.1641C6.15012 14.9784 6.00278 14.7579 5.90226 14.5152C5.80174 14.2725 5.75 14.0124 5.75 13.7498V7.25025Z" stroke="white" stroke-width="1.2" stroke-linecap="round" stroke-linejoin="round"/>
<path d="M3.509 12.5527C3.27901 12.4216 3.0877 12.2321 2.95443 12.0034C2.82116 11.7746 2.75064 11.5147 2.75 11.25V3.75C2.75 2.925 3.425 2.25 4.25 2.25H11.75C12.3125 2.25 12.6185 2.53875 12.875 3" stroke="white" stroke-width="1.2" stroke-linecap="round" stroke-linejoin="round"/>
</svg>
