<svg width="30" height="30" viewBox="0 0 30 30" fill="none" xmlns="http://www.w3.org/2000/svg">
<path fill-rule="evenodd" clip-rule="evenodd" d="M8.75 2.5C9.44035 2.5 10 3.05965 10 3.75V5H20V3.75C20 3.05965 20.5596 2.5 21.25 2.5C21.9404 2.5 22.5 3.05965 22.5 3.75V5H23.75C25.8211 5 27.5 6.67894 27.5 8.75V17.5C27.5 18.1904 26.9404 18.75 26.25 18.75C25.5596 18.75 25 18.1904 25 17.5V12.5H5V23.75C5 24.4404 5.55965 25 6.25 25H12.5C13.1904 25 13.75 25.5596 13.75 26.25C13.75 26.9404 13.1904 27.5 12.5 27.5H6.25C4.17894 27.5 2.5 25.8211 2.5 23.75V8.75C2.5 6.67894 4.17894 5 6.25 5H7.5V3.75C7.5 3.05965 8.05965 2.5 8.75 2.5ZM6.25 7.5C5.55965 7.5 5 8.05965 5 8.75V10H25V8.75C25 8.05965 24.4404 7.5 23.75 7.5H6.25Z" fill="white"/>
<path d="M22.8661 22.1339C22.378 21.6458 22.378 20.8543 22.8661 20.3662C23.3542 19.878 24.1457 19.878 24.6338 20.3662L27.1338 22.8662C27.622 23.3543 27.622 24.1458 27.1338 24.6339L24.6338 27.1339C24.1457 27.622 23.3542 27.622 22.8661 27.1339C22.378 26.6458 22.378 25.8543 22.8661 25.3662L24.4822 23.75L22.8661 22.1339Z" fill="white"/>
<path d="M16.6161 20.3662C16.128 20.8543 16.128 21.6458 16.6161 22.1339L18.2322 23.75L16.6161 25.3662C16.128 25.8543 16.128 26.6458 16.6161 27.1339C17.1042 27.622 17.8957 27.622 18.3838 27.1339L20.8838 24.6339C21.372 24.1458 21.372 23.3543 20.8838 22.8662L18.3838 20.3662C17.8957 19.878 17.1042 19.878 16.6161 20.3662Z" fill="white"/>
</svg>
